<mxfile host="app.diagrams.net" modified="2023-07-17T13:53:09.190Z" agent="Mozilla/5.0 (Windows NT 10.0; Win64; x64) AppleWebKit/537.36 (KHTML, like Gecko) Chrome/114.0.0.0 Safari/537.36" etag="BWUL4UUdEF4u8qvZZDfK" version="21.6.2" type="device">
  <diagram name="Page-1" id="rjf5kfY8AGQ52vQsN9IC">
    <mxGraphModel dx="1687" dy="2001" grid="1" gridSize="10" guides="1" tooltips="1" connect="1" arrows="1" fold="1" page="1" pageScale="1" pageWidth="827" pageHeight="1169" math="0" shadow="0">
      <root>
        <mxCell id="0" />
        <mxCell id="1" parent="0" />
        <mxCell id="eFVLHT61OfDLq2b2nh2S-1" value="AWS Cloud By Terraform Demo" style="points=[[0,0],[0.25,0],[0.5,0],[0.75,0],[1,0],[1,0.25],[1,0.5],[1,0.75],[1,1],[0.75,1],[0.5,1],[0.25,1],[0,1],[0,0.75],[0,0.5],[0,0.25]];outlineConnect=0;gradientColor=none;html=1;whiteSpace=wrap;fontSize=12;fontStyle=1;container=0;pointerEvents=0;collapsible=0;recursiveResize=0;shape=mxgraph.aws4.group;grIcon=mxgraph.aws4.group_aws_cloud_alt;strokeColor=#232F3E;fillColor=none;verticalAlign=top;align=left;spacingLeft=30;fontColor=#232F3E;dashed=0;" parent="1" vertex="1">
          <mxGeometry width="800" height="800" as="geometry" />
        </mxCell>
        <mxCell id="KRYQvPyUcHYHMjgRqTuO-5" style="edgeStyle=orthogonalEdgeStyle;rounded=0;orthogonalLoop=1;jettySize=auto;html=1;entryX=0.5;entryY=0;entryDx=0;entryDy=0;entryPerimeter=0;" edge="1" parent="1" source="KRYQvPyUcHYHMjgRqTuO-2" target="U9uhpB5tGpDx5M5K4C0I-4">
          <mxGeometry relative="1" as="geometry" />
        </mxCell>
        <mxCell id="KRYQvPyUcHYHMjgRqTuO-2" value="client" style="sketch=0;outlineConnect=0;fontColor=#232F3E;gradientColor=none;fillColor=#232F3D;strokeColor=none;dashed=0;verticalLabelPosition=bottom;verticalAlign=top;align=center;html=1;fontSize=12;fontStyle=1;aspect=fixed;pointerEvents=1;shape=mxgraph.aws4.client;" vertex="1" parent="1">
          <mxGeometry y="-60" width="31.32" height="30.51" as="geometry" />
        </mxCell>
        <mxCell id="eFVLHT61OfDLq2b2nh2S-7" value="" style="swimlane;startSize=0;" parent="1" vertex="1">
          <mxGeometry x="10" y="40" width="200" height="120" as="geometry">
            <mxRectangle x="32.72" y="60" width="50" height="40" as="alternateBounds" />
          </mxGeometry>
        </mxCell>
        <mxCell id="eFVLHT61OfDLq2b2nh2S-5" value="" style="sketch=0;outlineConnect=0;fontColor=#232F3E;gradientColor=none;fillColor=#BF0816;strokeColor=none;dashed=0;verticalLabelPosition=bottom;verticalAlign=top;align=center;html=1;fontSize=12;fontStyle=0;aspect=fixed;pointerEvents=1;shape=mxgraph.aws4.role;" parent="eFVLHT61OfDLq2b2nh2S-7" vertex="1">
          <mxGeometry x="37.28" y="10" width="35.45" height="20" as="geometry" />
        </mxCell>
        <mxCell id="eFVLHT61OfDLq2b2nh2S-4" value="" style="sketch=0;outlineConnect=0;fontColor=#232F3E;gradientColor=none;fillColor=#BF0816;strokeColor=none;dashed=0;verticalLabelPosition=bottom;verticalAlign=top;align=center;html=1;fontSize=12;fontStyle=0;aspect=fixed;pointerEvents=1;shape=mxgraph.aws4.permissions;" parent="eFVLHT61OfDLq2b2nh2S-7" vertex="1">
          <mxGeometry x="13.43" y="10" width="23.85" height="30" as="geometry" />
        </mxCell>
        <mxCell id="eFVLHT61OfDLq2b2nh2S-6" value="IAM (user and policy attachment) to&amp;nbsp;&amp;nbsp;&lt;br&gt;[&quot;kan-01&quot;, &quot;prod-02&quot;, &quot;dev-03&quot;]" style="text;html=1;strokeColor=none;fillColor=none;align=left;verticalAlign=middle;whiteSpace=wrap;rounded=0;fontStyle=1" parent="eFVLHT61OfDLq2b2nh2S-7" vertex="1">
          <mxGeometry x="7.28" y="40" width="192.72" height="80" as="geometry" />
        </mxCell>
        <mxCell id="U9uhpB5tGpDx5M5K4C0I-13" value="VPC" style="points=[[0,0],[0.25,0],[0.5,0],[0.75,0],[1,0],[1,0.25],[1,0.5],[1,0.75],[1,1],[0.75,1],[0.5,1],[0.25,1],[0,1],[0,0.75],[0,0.5],[0,0.25]];outlineConnect=0;gradientColor=none;html=1;whiteSpace=wrap;fontSize=12;fontStyle=0;container=0;pointerEvents=0;collapsible=0;recursiveResize=0;shape=mxgraph.aws4.group;grIcon=mxgraph.aws4.group_vpc;strokeColor=#248814;fillColor=none;verticalAlign=top;align=left;spacingLeft=30;fontColor=#AAB7B8;dashed=0;" parent="1" vertex="1">
          <mxGeometry x="159" y="330" width="510" height="390" as="geometry" />
        </mxCell>
        <mxCell id="KRYQvPyUcHYHMjgRqTuO-1" value="ap-southeast-1" style="points=[[0,0],[0.25,0],[0.5,0],[0.75,0],[1,0],[1,0.25],[1,0.5],[1,0.75],[1,1],[0.75,1],[0.5,1],[0.25,1],[0,1],[0,0.75],[0,0.5],[0,0.25]];outlineConnect=0;gradientColor=none;html=1;whiteSpace=wrap;fontSize=12;fontStyle=1;container=1;pointerEvents=0;collapsible=0;recursiveResize=0;shape=mxgraph.aws4.group;grIcon=mxgraph.aws4.group_region;strokeColor=#147EBA;fillColor=none;verticalAlign=top;align=left;spacingLeft=30;fontColor=#147EBA;dashed=1;" vertex="1" parent="1">
          <mxGeometry x="70" y="200" width="690" height="550" as="geometry" />
        </mxCell>
        <mxCell id="U9uhpB5tGpDx5M5K4C0I-4" value="Network Load Balancer" style="sketch=0;points=[[0,0,0],[0.25,0,0],[0.5,0,0],[0.75,0,0],[1,0,0],[0,1,0],[0.25,1,0],[0.5,1,0],[0.75,1,0],[1,1,0],[0,0.25,0],[0,0.5,0],[0,0.75,0],[1,0.25,0],[1,0.5,0],[1,0.75,0]];outlineConnect=0;fontColor=#232F3E;gradientColor=#F78E04;gradientDirection=north;fillColor=#D05C17;strokeColor=#ffffff;dashed=0;verticalLabelPosition=middle;verticalAlign=middle;align=right;html=1;fontSize=12;fontStyle=1;aspect=fixed;shape=mxgraph.aws4.resourceIcon;resIcon=mxgraph.aws4.elastic_load_balancing;horizontal=1;labelPosition=left;" parent="KRYQvPyUcHYHMjgRqTuO-1" vertex="1">
          <mxGeometry x="319" y="70" width="40" height="40" as="geometry" />
        </mxCell>
        <mxCell id="KRYQvPyUcHYHMjgRqTuO-6" value="Amazon S3" style="sketch=0;outlineConnect=0;fontColor=#232F3E;gradientColor=none;strokeColor=#ffffff;fillColor=#232F3E;dashed=0;verticalLabelPosition=top;verticalAlign=bottom;align=center;html=1;whiteSpace=wrap;fontSize=10;fontStyle=1;spacing=3;shape=mxgraph.aws4.productIcon;prIcon=mxgraph.aws4.s3;labelPosition=center;" vertex="1" parent="KRYQvPyUcHYHMjgRqTuO-1">
          <mxGeometry x="10" y="65" width="40" height="50" as="geometry" />
        </mxCell>
        <mxCell id="KRYQvPyUcHYHMjgRqTuO-7" value="Elastic IP&#xa;Address" style="sketch=0;outlineConnect=0;fontColor=#232F3E;gradientColor=none;strokeColor=#232F3E;fillColor=#ffffff;dashed=0;verticalLabelPosition=top;verticalAlign=bottom;align=center;html=1;fontSize=10;fontStyle=1;aspect=fixed;shape=mxgraph.aws4.resourceIcon;resIcon=mxgraph.aws4.elastic_ip_address;labelPosition=center;" vertex="1" parent="KRYQvPyUcHYHMjgRqTuO-1">
          <mxGeometry x="60" y="65" width="40" height="40" as="geometry" />
        </mxCell>
        <mxCell id="U9uhpB5tGpDx5M5K4C0I-7" value="Availability zone&lt;br&gt;ap-southeast-1a" style="sketch=0;outlineConnect=0;gradientColor=none;html=1;whiteSpace=wrap;fontSize=12;fontStyle=1;shape=mxgraph.aws4.group;grIcon=mxgraph.aws4.group_availability_zone;strokeColor=#545B64;fillColor=none;verticalAlign=top;align=left;spacingLeft=30;fontColor=#545B64;dashed=1;movable=1;resizable=1;rotatable=1;deletable=1;editable=1;locked=0;connectable=1;" parent="KRYQvPyUcHYHMjgRqTuO-1" vertex="1">
          <mxGeometry x="169" y="180" width="150" height="310" as="geometry" />
        </mxCell>
        <mxCell id="KRYQvPyUcHYHMjgRqTuO-3" style="edgeStyle=orthogonalEdgeStyle;rounded=0;orthogonalLoop=1;jettySize=auto;html=1;" edge="1" parent="KRYQvPyUcHYHMjgRqTuO-1" source="U9uhpB5tGpDx5M5K4C0I-4" target="U9uhpB5tGpDx5M5K4C0I-7">
          <mxGeometry relative="1" as="geometry" />
        </mxCell>
        <mxCell id="U9uhpB5tGpDx5M5K4C0I-9" value="Availability zone&lt;br&gt;ap-southeast-1b&lt;br&gt;" style="sketch=0;outlineConnect=0;gradientColor=none;html=1;whiteSpace=wrap;fontSize=12;fontStyle=1;shape=mxgraph.aws4.group;grIcon=mxgraph.aws4.group_availability_zone;strokeColor=#545B64;fillColor=none;verticalAlign=top;align=left;spacingLeft=30;fontColor=#545B64;dashed=1;movable=1;resizable=1;rotatable=1;deletable=1;editable=1;locked=0;connectable=1;" parent="KRYQvPyUcHYHMjgRqTuO-1" vertex="1">
          <mxGeometry x="359" y="180" width="150" height="310" as="geometry" />
        </mxCell>
        <mxCell id="KRYQvPyUcHYHMjgRqTuO-4" style="edgeStyle=orthogonalEdgeStyle;rounded=0;orthogonalLoop=1;jettySize=auto;html=1;" edge="1" parent="KRYQvPyUcHYHMjgRqTuO-1" source="U9uhpB5tGpDx5M5K4C0I-4" target="U9uhpB5tGpDx5M5K4C0I-9">
          <mxGeometry relative="1" as="geometry" />
        </mxCell>
        <mxCell id="KRYQvPyUcHYHMjgRqTuO-13" style="edgeStyle=orthogonalEdgeStyle;rounded=0;orthogonalLoop=1;jettySize=auto;html=1;entryX=0.75;entryY=0;entryDx=0;entryDy=0;entryPerimeter=0;" edge="1" parent="KRYQvPyUcHYHMjgRqTuO-1" source="U9uhpB5tGpDx5M5K4C0I-12" target="KRYQvPyUcHYHMjgRqTuO-8">
          <mxGeometry relative="1" as="geometry">
            <Array as="points">
              <mxPoint x="434" y="306.5" />
              <mxPoint x="254" y="306.5" />
            </Array>
          </mxGeometry>
        </mxCell>
        <mxCell id="U9uhpB5tGpDx5M5K4C0I-12" value="Web Server" style="sketch=0;points=[[0,0,0],[0.25,0,0],[0.5,0,0],[0.75,0,0],[1,0,0],[0,1,0],[0.25,1,0],[0.5,1,0],[0.75,1,0],[1,1,0],[0,0.25,0],[0,0.5,0],[0,0.75,0],[1,0.25,0],[1,0.5,0],[1,0.75,0]];outlineConnect=0;fontColor=#232F3E;gradientColor=#F78E04;gradientDirection=north;fillColor=#D05C17;strokeColor=#ffffff;dashed=0;verticalLabelPosition=top;verticalAlign=bottom;align=center;html=1;fontSize=12;fontStyle=1;aspect=fixed;shape=mxgraph.aws4.resourceIcon;resIcon=mxgraph.aws4.ec2;labelPosition=center;" parent="KRYQvPyUcHYHMjgRqTuO-1" vertex="1">
          <mxGeometry x="414" y="262.5" width="40" height="40" as="geometry" />
        </mxCell>
        <mxCell id="KRYQvPyUcHYHMjgRqTuO-14" style="edgeStyle=orthogonalEdgeStyle;rounded=0;orthogonalLoop=1;jettySize=auto;html=1;entryX=1;entryY=0.25;entryDx=0;entryDy=0;entryPerimeter=0;" edge="1" parent="KRYQvPyUcHYHMjgRqTuO-1" source="KRYQvPyUcHYHMjgRqTuO-9" target="KRYQvPyUcHYHMjgRqTuO-8">
          <mxGeometry relative="1" as="geometry">
            <Array as="points">
              <mxPoint x="264" y="380" />
            </Array>
          </mxGeometry>
        </mxCell>
        <mxCell id="KRYQvPyUcHYHMjgRqTuO-9" value="RDS" style="sketch=0;points=[[0,0,0],[0.25,0,0],[0.5,0,0],[0.75,0,0],[1,0,0],[0,1,0],[0.25,1,0],[0.5,1,0],[0.75,1,0],[1,1,0],[0,0.25,0],[0,0.5,0],[0,0.75,0],[1,0.25,0],[1,0.5,0],[1,0.75,0]];outlineConnect=0;fontColor=#232F3E;gradientColor=#4D72F3;gradientDirection=north;fillColor=#3334B9;strokeColor=#ffffff;dashed=0;verticalLabelPosition=bottom;verticalAlign=top;align=center;html=1;fontSize=12;fontStyle=1;aspect=fixed;shape=mxgraph.aws4.resourceIcon;resIcon=mxgraph.aws4.rds;" vertex="1" parent="KRYQvPyUcHYHMjgRqTuO-1">
          <mxGeometry x="414" y="367.5" width="40" height="40" as="geometry" />
        </mxCell>
        <mxCell id="KRYQvPyUcHYHMjgRqTuO-8" value="RDS" style="sketch=0;points=[[0,0,0],[0.25,0,0],[0.5,0,0],[0.75,0,0],[1,0,0],[0,1,0],[0.25,1,0],[0.5,1,0],[0.75,1,0],[1,1,0],[0,0.25,0],[0,0.5,0],[0,0.75,0],[1,0.25,0],[1,0.5,0],[1,0.75,0]];outlineConnect=0;fontColor=#232F3E;gradientColor=#4D72F3;gradientDirection=north;fillColor=#3334B9;strokeColor=#ffffff;dashed=0;verticalLabelPosition=bottom;verticalAlign=top;align=center;html=1;fontSize=12;fontStyle=1;aspect=fixed;shape=mxgraph.aws4.resourceIcon;resIcon=mxgraph.aws4.rds;" vertex="1" parent="KRYQvPyUcHYHMjgRqTuO-1">
          <mxGeometry x="224" y="367.5" width="40" height="40" as="geometry" />
        </mxCell>
        <mxCell id="KRYQvPyUcHYHMjgRqTuO-10" style="edgeStyle=orthogonalEdgeStyle;rounded=0;orthogonalLoop=1;jettySize=auto;html=1;entryX=0;entryY=0.5;entryDx=0;entryDy=0;entryPerimeter=0;" edge="1" parent="KRYQvPyUcHYHMjgRqTuO-1" source="KRYQvPyUcHYHMjgRqTuO-8" target="KRYQvPyUcHYHMjgRqTuO-9">
          <mxGeometry relative="1" as="geometry" />
        </mxCell>
        <mxCell id="KRYQvPyUcHYHMjgRqTuO-12" style="edgeStyle=orthogonalEdgeStyle;rounded=0;orthogonalLoop=1;jettySize=auto;html=1;entryX=0.5;entryY=0;entryDx=0;entryDy=0;entryPerimeter=0;" edge="1" parent="1" source="eFVLHT61OfDLq2b2nh2S-13" target="KRYQvPyUcHYHMjgRqTuO-8">
          <mxGeometry relative="1" as="geometry" />
        </mxCell>
        <mxCell id="eFVLHT61OfDLq2b2nh2S-13" value="Web Server" style="sketch=0;points=[[0,0,0],[0.25,0,0],[0.5,0,0],[0.75,0,0],[1,0,0],[0,1,0],[0.25,1,0],[0.5,1,0],[0.75,1,0],[1,1,0],[0,0.25,0],[0,0.5,0],[0,0.75,0],[1,0.25,0],[1,0.5,0],[1,0.75,0]];outlineConnect=0;fontColor=#232F3E;gradientColor=#F78E04;gradientDirection=north;fillColor=#D05C17;strokeColor=#ffffff;dashed=0;verticalLabelPosition=top;verticalAlign=bottom;align=center;html=1;fontSize=12;fontStyle=1;aspect=fixed;shape=mxgraph.aws4.resourceIcon;resIcon=mxgraph.aws4.ec2;labelPosition=center;" parent="1" vertex="1">
          <mxGeometry x="294" y="462.5" width="40" height="40" as="geometry" />
        </mxCell>
      </root>
    </mxGraphModel>
  </diagram>
</mxfile>
